<svg xmlns="http://www.w3.org/2000/svg" xmlns:xlink="http://www.w3.org/1999/xlink" width="1080" zoomAndPan="magnify" viewBox="0 0 810 809.999993" height="1080" preserveAspectRatio="xMidYMid meet" version="1.2"><defs><clipPath id="24ddf2f82d"><path d="M 349.179688 329.605469 L 357.84375 329.605469 L 357.84375 338.605469 L 349.179688 338.605469 Z M 349.179688 329.605469 "/></clipPath><clipPath id="89e7963b73"><path d="M 357.824219 332.773438 C 356.699219 337.5 356.023438 337.875 355.425781 338.175781 C 354.75 338.476562 354.074219 338.699219 353.25 338.550781 C 352.199219 338.398438 350.324219 337.5 349.726562 336.375 C 349.050781 335.324219 349.125 333.300781 349.425781 332.25 C 349.648438 331.5 350.25 330.976562 350.773438 330.523438 C 351.300781 330.074219 351.976562 329.699219 352.726562 329.625 C 353.851562 329.625 356.699219 330.898438 356.699219 330.898438 "/></clipPath></defs><g id="e8a7f442d1"><g clip-rule="nonzero" clip-path="url(#24ddf2f82d)"><g clip-rule="nonzero" clip-path="url(#89e7963b73)"><path style=" stroke:none;fill-rule:nonzero;fill:#e7191f;fill-opacity:1;" d="M 346.425781 326.625 L 360.824219 326.625 L 360.824219 341.53125 L 346.425781 341.53125 Z M 346.425781 326.625 "/></g></g><path style=" stroke:none;fill-rule:evenodd;fill:#085d37;fill-opacity:1;" d="M 336.058594 219.984375 C 332.324219 182.214844 318.925781 147.78125 295.921875 116.804688 C 262.683594 64.457031 335.710938 32.59375 363.144531 119.515625 C 360.035156 81.203125 382.101562 50.316406 404.511719 50.558594 C 426.925781 50.316406 448.992188 81.1875 445.832031 119.515625 C 473.316406 32.59375 546.339844 64.457031 513.105469 116.804688 C 490.101562 147.78125 476.703125 182.199219 472.96875 219.984375 Z M 336.058594 219.984375 "/><path style=" stroke:none;fill-rule:evenodd;fill:#206e4c;fill-opacity:1;" d="M 162.015625 645.398438 C 162.015625 515.042969 236.433594 376.160156 324.453125 288.351562 C 326.328125 288.839844 328.292969 289.097656 330.308594 289.097656 L 478.753906 289.097656 C 480.769531 289.097656 482.75 288.855469 484.609375 288.351562 C 572.628906 376.160156 646.992188 515.042969 646.992188 645.398438 C 646.976562 777.386719 162.015625 777.386719 162.015625 645.398438 Z M 162.015625 645.398438 "/><path style=" stroke:none;fill-rule:evenodd;fill:#085d37;fill-opacity:1;" d="M 162.015625 645.398438 C 162.015625 515.042969 236.433594 376.160156 324.453125 288.351562 C 326.328125 288.839844 328.292969 289.097656 330.308594 289.097656 L 419.160156 289.097656 C 331.488281 376.957031 257.472656 515.441406 257.472656 645.414062 C 257.472656 702.75 348.828125 735.152344 452.257812 742.671875 C 317.398438 752.507812 162.015625 720.105469 162.015625 645.398438 Z M 162.015625 645.398438 "/><path style=" stroke:none;fill-rule:evenodd;fill:#fdb614;fill-opacity:1;" d="M 404.511719 403.679688 C 481.292969 403.679688 543.597656 465.980469 543.597656 542.753906 C 543.597656 619.582031 481.292969 681.832031 404.511719 681.832031 C 327.683594 681.832031 265.429688 619.582031 265.429688 542.753906 C 265.429688 465.980469 327.683594 403.679688 404.511719 403.679688 Z M 404.511719 403.679688 "/><path style=" stroke:none;fill-rule:evenodd;fill:#f6851f;fill-opacity:1;" d="M 404.511719 440.320312 C 461.050781 440.320312 506.953125 486.222656 506.953125 542.753906 C 506.953125 599.339844 461.050781 645.191406 404.511719 645.191406 C 347.925781 645.191406 302.074219 599.339844 302.074219 542.753906 C 302.074219 486.21875 347.925781 440.320312 404.511719 440.320312 Z M 404.511719 440.320312 "/><path style=" stroke:none;fill-rule:evenodd;fill:#fdb614;fill-opacity:1;" d="M 442.980469 461.742188 C 452.484375 461.742188 460.214844 469.472656 460.214844 478.976562 C 460.214844 488.480469 452.484375 496.160156 442.980469 496.160156 C 433.527344 496.160156 425.796875 488.480469 425.796875 478.976562 C 425.796875 469.488281 433.527344 461.742188 442.980469 461.742188 Z M 442.980469 461.742188 "/><path style=" stroke:none;fill-rule:evenodd;fill:#fdb614;fill-opacity:1;" d="M 464.648438 495.6875 C 469.023438 495.6875 472.570312 499.234375 472.570312 503.578125 C 472.570312 507.957031 469.023438 511.5 464.648438 511.5 C 460.269531 511.5 456.722656 507.957031 456.722656 503.578125 C 456.722656 499.234375 460.269531 495.6875 464.648438 495.6875 Z M 464.648438 495.6875 "/><path style=" stroke:none;fill-rule:evenodd;fill:#4d4d4e;fill-opacity:1;" d="M 336.058594 219.984375 L 472.96875 219.984375 C 489.320312 219.984375 502.660156 233.382812 502.660156 249.730469 L 502.660156 259.335938 C 502.660156 275.6875 489.320312 289.082031 472.96875 289.082031 L 336.058594 289.082031 C 319.707031 289.082031 306.363281 275.6875 306.363281 259.335938 L 306.363281 249.730469 C 306.363281 233.382812 319.707031 219.984375 336.058594 219.984375 Z M 336.058594 219.984375 "/><path style=" stroke:none;fill-rule:evenodd;fill:#6f6f70;fill-opacity:1;" d="M 359.757812 219.984375 L 472.988281 219.984375 C 489.335938 219.984375 502.679688 233.382812 502.679688 249.730469 L 502.679688 259.335938 C 502.679688 270.769531 496.128906 280.757812 486.625 285.726562 C 435.699219 272.332031 391.8125 249.347656 359.757812 219.984375 Z M 359.757812 219.984375 "/><path style=" stroke:none;fill-rule:evenodd;fill:#ef3a37;fill-opacity:1;" d="M 688.605469 236.925781 C 638.511719 239.878906 591.046875 261.058594 555.324219 296.761719 C 515.867188 336.25 494.148438 390.09375 495.191406 445.878906 C 532.964844 371.277344 606.699219 322.71875 688.605469 316.253906 L 688.605469 352.199219 L 742.292969 314.03125 L 795.925781 275.808594 L 742.292969 237.636719 L 688.605469 199.414062 Z M 688.605469 236.925781 "/><path style=" stroke:none;fill-rule:evenodd;fill:#ed2024;fill-opacity:1;" d="M 664.765625 239.738281 C 623.640625 247.035156 585.328125 266.773438 555.324219 296.777344 C 515.867188 336.269531 494.148438 390.109375 495.191406 445.894531 C 511.835938 412.957031 535.535156 385.125 563.804688 363.753906 C 574.4375 330.8125 592.765625 300.511719 617.679688 275.597656 C 631.808594 261.457031 647.667969 249.433594 664.765625 239.738281 Z M 664.765625 239.738281 "/><path style=" stroke:none;fill-rule:evenodd;fill:#ef3a37;fill-opacity:1;" d="M 121.429688 236.925781 C 171.519531 239.878906 218.988281 261.058594 254.710938 296.761719 C 294.167969 336.25 315.886719 390.09375 314.84375 445.878906 C 277.070312 371.277344 203.332031 322.71875 121.429688 316.253906 L 121.429688 352.199219 L 67.742188 314.03125 L 14.054688 275.808594 L 67.742188 237.636719 L 121.429688 199.414062 Z M 121.429688 236.925781 "/><path style=" stroke:none;fill-rule:evenodd;fill:#ed2024;fill-opacity:1;" d="M 145.269531 239.738281 C 186.394531 247.035156 224.703125 266.773438 254.710938 296.777344 C 294.167969 336.269531 315.886719 390.109375 314.84375 445.894531 C 298.199219 412.957031 274.5 385.125 246.230469 363.753906 C 235.597656 330.8125 217.269531 300.511719 192.351562 275.597656 C 178.210938 261.457031 162.347656 249.433594 145.269531 239.738281 Z M 145.269531 239.738281 "/><path style=" stroke:none;fill-rule:evenodd;fill:#ef3a37;fill-opacity:1;" d="M 620.878906 445.097656 C 587.378906 447.058594 555.621094 461.253906 531.675781 485.179688 C 505.285156 511.570312 490.707031 547.621094 491.4375 584.957031 C 516.699219 535.023438 566.042969 502.515625 620.859375 498.226562 L 620.859375 522.253906 L 656.808594 496.695312 L 692.757812 471.140625 L 656.808594 445.582031 L 620.859375 420.027344 L 620.859375 445.097656 Z M 620.878906 445.097656 "/><path style=" stroke:none;fill-rule:evenodd;fill:#ed2024;fill-opacity:1;" d="M 604.964844 447.027344 C 577.390625 451.90625 551.78125 465.09375 531.675781 485.195312 C 505.285156 511.585938 490.707031 547.636719 491.4375 584.972656 C 502.574219 562.960938 518.421875 544.300781 537.394531 530.019531 C 544.484375 507.957031 556.75 487.714844 573.445312 471.019531 C 582.898438 461.496094 593.496094 453.472656 604.964844 447.027344 Z M 604.964844 447.027344 "/><path style=" stroke:none;fill-rule:evenodd;fill:#ef3a37;fill-opacity:1;" d="M 180.035156 445.097656 C 213.566406 447.058594 245.34375 461.253906 269.269531 485.179688 C 295.664062 511.570312 310.203125 547.621094 309.507812 584.957031 C 284.195312 535.023438 234.851562 502.515625 180.035156 498.226562 L 180.035156 522.253906 L 144.140625 496.695312 L 108.191406 471.140625 L 144.140625 445.582031 L 180.035156 420.027344 Z M 180.035156 445.097656 "/><path style=" stroke:none;fill-rule:evenodd;fill:#ed2024;fill-opacity:1;" d="M 195.984375 447.027344 C 223.523438 451.90625 249.167969 465.09375 269.269531 485.195312 C 295.664062 511.585938 310.203125 547.636719 309.507812 584.972656 C 298.335938 562.960938 282.527344 544.300781 263.554688 530.019531 C 256.464844 507.957031 244.199219 487.714844 227.5 471.019531 C 218.050781 461.496094 207.417969 453.472656 195.984375 447.027344 Z M 195.984375 447.027344 "/><path style=" stroke:none;fill-rule:nonzero;fill:#000000;fill-opacity:1;" d="M 358.175781 570.777344 C 358.175781 564.070312 363.597656 558.617188 370.335938 558.617188 C 377.027344 558.617188 382.5 564.089844 382.5 570.777344 C 382.5 583.425781 403.332031 590.027344 414.851562 580.144531 C 417.804688 577.675781 419.578125 574.339844 419.578125 570.777344 C 419.578125 546.109375 358.160156 569.007812 358.160156 518.222656 C 358.160156 500.15625 371.796875 485.90625 388.894531 481.390625 L 388.894531 470.011719 C 388.894531 463.269531 394.316406 457.847656 401.003906 457.847656 C 407.746094 457.847656 413.164062 463.269531 413.164062 470.011719 L 413.164062 481.390625 C 430.261719 485.925781 443.902344 500.15625 443.902344 518.222656 C 443.902344 524.964844 438.480469 530.382812 431.738281 530.382812 C 425.03125 530.382812 419.578125 524.964844 419.578125 518.222656 C 419.578125 505.558594 398.746094 499.007812 387.226562 508.859375 C 384.273438 511.378906 382.5 514.660156 382.5 518.222656 C 382.5 542.945312 443.917969 519.996094 443.917969 570.777344 C 443.917969 588.847656 430.28125 603.09375 413.183594 607.664062 L 413.183594 619.042969 C 413.183594 625.75 407.761719 631.203125 401.019531 631.203125 C 394.332031 631.203125 388.910156 625.730469 388.910156 619.042969 L 388.910156 607.664062 C 371.816406 603.09375 358.175781 588.863281 358.175781 570.777344 Z M 192.195312 434.117188 C 196.140625 434.65625 200.085938 435.351562 203.925781 436.238281 C 214.609375 414.917969 226.71875 393.792969 239.679688 373.988281 C 208.945312 350.550781 172.460938 335.171875 133.59375 329.804688 L 133.59375 352.21875 C 133.59375 361.773438 122.613281 368.460938 113.648438 361.582031 L 7.070312 285.746094 C 0.0351562 280.777344 0.417969 270.578125 7.261719 265.851562 L 114.375 189.617188 C 122.507812 183.847656 133.574219 189.914062 133.539062 199.519531 L 133.59375 199.519531 L 133.59375 225.875 C 193.917969 232.617188 248.996094 264.394531 284.890625 313.4375 L 306.710938 289.203125 C 298.980469 281.574219 294.203125 271.03125 294.203125 259.40625 L 294.203125 249.746094 C 294.203125 231.625 305.878906 215.816406 322.574219 210.101562 C 317.746094 178.878906 305.582031 150.214844 286.175781 124.066406 C 285.984375 123.824219 285.828125 123.578125 285.6875 123.320312 L 285.636719 123.320312 C 259.191406 81.605469 288 44.824219 324.050781 54.917969 C 335.03125 57.976562 346.550781 65.65625 356.613281 79.050781 C 365.039062 56.585938 383.855469 36.605469 407.691406 38.519531 C 428.628906 40.238281 444.789062 58.652344 452.414062 79.050781 C 467.339844 59.15625 489.753906 47.726562 510.585938 55.804688 C 518.558594 58.914062 525.058594 64.578125 529.210938 72.207031 C 536.109375 85.167969 536.003906 103.476562 523.390625 123.320312 C 523.09375 123.804688 522.746094 124.257812 522.398438 124.691406 C 511.765625 139.128906 503.339844 154.332031 497.136719 170.246094 C 492.167969 182.996094 488.625 196.304688 486.453125 210.082031 C 503.148438 215.800781 514.875 231.609375 514.875 249.730469 L 514.875 259.390625 C 514.875 271.011719 510.097656 281.558594 502.367188 289.183594 L 524.675781 314.046875 C 560.570312 264.652344 615.839844 232.582031 676.460938 225.839844 L 676.460938 199.484375 C 676.460938 189.878906 687.542969 183.832031 695.625 189.582031 L 802.789062 265.816406 C 809.582031 270.542969 809.984375 280.742188 802.980469 285.710938 L 696.351562 361.546875 C 687.441406 368.445312 676.460938 361.738281 676.460938 352.183594 L 676.460938 329.769531 C 637.296875 335.191406 600.566406 350.707031 569.675781 374.492188 C 582.429688 394 593.949219 413.945312 604.390625 434.777344 C 605.867188 434.535156 607.292969 434.289062 608.714844 434.082031 L 608.714844 419.992188 L 608.769531 419.992188 C 608.769531 410.4375 619.800781 404.339844 627.933594 410.140625 L 699.585938 461.117188 C 706.429688 465.839844 706.828125 476.039062 699.777344 481.007812 L 640.078125 523.558594 C 651.996094 563.097656 659.136719 604.519531 659.136719 645.449219 C 659.136719 700.160156 591.8125 734.386719 505.617188 748.632812 C 441.539062 759.214844 367.472656 759.214844 303.339844 748.632812 C 217.199219 734.402344 149.820312 700.175781 149.820312 645.449219 C 149.820312 606.203125 156.421875 566.398438 167.542969 528.28125 L 101.101562 481.0625 C 94.117188 476.089844 94.5 465.894531 101.34375 461.167969 L 172.964844 410.191406 C 181.09375 404.390625 192.179688 410.488281 192.128906 420.042969 L 192.179688 420.042969 L 192.179688 434.117188 Z M 227.414062 443.429688 C 243.574219 449.875 258.550781 459.082031 271.597656 470.671875 C 278.253906 458.40625 286.523438 447.234375 296.21875 437.226562 C 285.636719 419.59375 272.832031 403.730469 258.289062 389.902344 C 247.011719 407.273438 236.816406 424.960938 227.414062 443.429688 Z M 289.269531 489.433594 C 310.796875 516.574219 322.210938 550.347656 321.621094 585.214844 C 321.429688 597.828125 304.332031 601.667969 298.667969 590.429688 L 298.667969 590.480469 C 293.195312 579.691406 286.558594 569.789062 278.859375 560.875 C 287.722656 622.777344 340.976562 669.667969 404.496094 669.667969 C 471.527344 669.667969 526.742188 617.617188 531.121094 551.285156 C 519.550781 562.457031 509.75 575.609375 502.210938 590.480469 L 502.210938 590.429688 C 496.546875 601.652344 479.5 597.8125 479.257812 585.214844 C 478.617188 547.6875 491.960938 511.449219 516.683594 483.371094 C 511.714844 474.058594 505.597656 465.335938 498.507812 457.519531 C 490.917969 459.742188 483.152344 454.167969 482.996094 446.085938 C 482.996094 445.046875 482.996094 444.070312 482.996094 443.03125 C 437.492188 407.222656 373.011719 406.683594 326.972656 442.246094 C 326.972656 443.535156 326.972656 444.800781 326.917969 446.085938 C 326.78125 454.511719 318.40625 460.125 310.671875 457.257812 C 302.039062 466.8125 294.6875 477.757812 289.269531 489.433594 Z M 253.425781 537.542969 C 236.882812 525.675781 217.964844 517.300781 197.828125 513.0625 C 183.195312 555.765625 174.179688 600.625 174.179688 645.449219 C 174.179688 685.738281 232.539062 712.320312 307.304688 724.691406 C 368.324219 734.785156 440.667969 734.785156 501.742188 724.691406 C 576.453125 712.339844 634.8125 685.738281 634.8125 645.449219 C 634.8125 607.921875 628.503906 570.394531 617.871094 534.101562 C 612.609375 532.730469 608.714844 527.988281 608.714844 522.339844 L 608.714844 512.003906 C 589.65625 515.253906 571.535156 522.203125 555.375 532.347656 C 561.335938 620.15625 491.941406 694.027344 404.511719 694.027344 C 318.925781 694.011719 250.261719 622.882812 253.425781 537.542969 Z M 223.382812 468.046875 C 209.832031 461.949219 195.167969 458.25 180.085938 457.3125 C 173.050781 457.121094 167.871094 451.804688 167.871094 445.148438 L 167.871094 443.566406 L 129.109375 471.140625 L 167.871094 498.765625 L 167.871094 498.226562 C 167.871094 491.191406 173.972656 485.558594 180.972656 486.117188 C 221.648438 489.3125 259.628906 507 288.242188 535.371094 C 276.167969 505.523438 252.78125 481.25 223.382812 468.046875 Z M 620.828125 457.3125 C 573.046875 460.367188 530.792969 490.597656 512.667969 535.371094 C 541.335938 506.949219 579.25 489.332031 619.941406 486.117188 C 626.976562 485.578125 633.039062 491.191406 633.039062 498.226562 L 633.039062 498.765625 L 671.855469 471.140625 L 633.039062 443.566406 L 633.039062 445.148438 C 633.039062 451.90625 627.53125 457.363281 620.828125 457.3125 Z M 567.695312 445.894531 C 571.777344 444.070312 576.015625 442.402344 580.308594 440.925781 C 571.449219 423.691406 561.542969 406.648438 551.101562 390.457031 C 536.664062 404.339844 523.910156 420.253906 513.417969 437.886719 C 521.636719 446.453125 528.828125 455.867188 534.839844 466.050781 C 544.882812 457.902344 555.914062 451.160156 567.695312 445.894531 Z M 298.683594 334.738281 C 312.53125 359.167969 321.585938 386.0625 325.179688 414.03125 C 374.230469 383.800781 436.136719 384.132812 484.75 414.625 C 488.292969 386.703125 497.207031 359.863281 510.949219 335.433594 C 501.046875 323.410156 490.65625 311.839844 479.78125 300.722656 C 477.554688 301.070312 475.246094 301.261719 472.933594 301.261719 L 336.074219 301.261719 C 333.765625 301.261719 331.488281 301.070312 329.28125 300.722656 C 318.476562 311.683594 308.589844 322.714844 298.683594 334.738281 Z M 188.601562 265.695312 C 167.578125 256.246094 144.816406 250.582031 121.464844 249.15625 C 114.429688 248.964844 109.25 243.648438 109.25 236.996094 L 109.25 223.0625 L 34.976562 275.910156 L 109.25 328.710938 L 109.25 316.359375 C 109.25 309.269531 115.316406 303.65625 122.351562 304.25 C 191.101562 309.617188 254.398438 343.355469 297.296875 396.539062 C 283.222656 338.632812 243.070312 290.175781 188.601562 265.695312 Z M 688.550781 249.140625 C 603.9375 254.402344 532.667969 314.238281 512.722656 396.484375 C 555.621094 343.253906 618.949219 309.566406 687.613281 304.195312 C 694.652344 303.605469 700.714844 309.21875 700.714844 316.304688 L 700.765625 316.304688 L 700.765625 328.660156 L 775.042969 275.859375 L 700.765625 223.007812 L 700.765625 236.941406 C 700.765625 243.71875 695.1875 249.191406 688.550781 249.140625 Z M 346.796875 207.875 L 462.230469 207.875 C 467.652344 171.390625 481.136719 140.308594 502.871094 110.269531 C 515.136719 93.035156 509.664062 73.195312 491.542969 78.304688 C 479.78125 81.550781 466.367188 94.949219 457.453125 123.214844 C 453.128906 136.851562 432.589844 132.875 433.71875 118.59375 C 435.058594 102.382812 431.460938 87.371094 423.765625 75.992188 C 400.222656 41.125 371.796875 82.195312 375.253906 118.195312 C 376.628906 132.960938 355.898438 136.90625 351.574219 123.214844 C 336.753906 76.289062 308.378906 70.363281 301.238281 83.722656 C 298.128906 89.492188 298.875 98.839844 306.15625 110.324219 C 327.980469 139.859375 341.53125 172.417969 346.796875 207.875 Z M 472.933594 232.148438 L 336.074219 232.148438 C 326.414062 232.148438 318.542969 240.070312 318.542969 249.730469 C 318.542969 258.503906 317.363281 265.4375 323.667969 271.742188 C 326.867188 274.9375 331.261719 276.917969 336.074219 276.917969 L 472.933594 276.917969 C 482.59375 276.917969 490.515625 268.996094 490.515625 259.390625 C 490.515625 250.617188 491.648438 243.683594 485.339844 237.324219 C 482.144531 234.179688 477.765625 232.148438 472.933594 232.148438 Z M 472.933594 232.148438 "/></g></svg>